# xmcd CD database file
#
# Track frame offsets:
#	150
#	24785
#	49352
#	69770
#	89782
#	109199
#	132331
#	158506
#	181014
#	200654
#	225221
#
# Disc length: 3243 seconds
#
# Revision: 0
# Processed by: cddbd v1.5.1PL0 Copyright (c) Steve Scherf et al.
# Submitted via: CDex 1.51
#
DISCID=840ca90b
DTITLE=平井　堅 - KEN　HIRAI　Best1
DYEAR=1900
DGENRE=Pop/Funk
TTITLE0=０１　−　Ｐｒｅｃｉｏｕｓ　Ｊｕｎｋ
TTITLE1=０２　−　Ｌｏｖｅ　Ｌｏｖｅ　Ｌｏｖｅ
TTITLE2=０３　−　ＫＩＳＳ　ＯＦ　ＬＩＦＥ
TTITLE3=０４　−　Ｓｔｒａｗｂｅｒｒｙ　Ｓｅｘ
TTITLE4=０５　−　青春デイズ
TTITLE5=０６　−　Ｓｈｅ　ｉｓ！
TTITLE6=０７　−　ｗｈｙ
TTITLE7=０８　−　ＬＯＶＥ　ＯＲ　ＬＵＳＴ
TTITLE8=０９　−　Ｓｔｙｌｅ
TTITLE9=１０　−　世界で一番君が好き？
TTITLE10=１１　−　Ｗｈｅｎ　Ｙｏｕ　Ｗｉｓｈ　Ｕｐｏｎ　Ａ　Ｓｔａｒ
EXTD=
EXTT0=
EXTT1=
EXTT2=
EXTT3=
EXTT4=
EXTT5=
EXTT6=
EXTT7=
EXTT8=
EXTT9=
EXTT10=
PLAYORDER=
